<?xml version="1.0" encoding="utf-8"?>
<!-- Generator: Adobe Illustrator 16.0.0, SVG Export Plug-In . SVG Version: 6.00 Build 0)  -->
<!DOCTYPE svg PUBLIC "-//W3C//DTD SVG 1.1//EN" "http://www.w3.org/Graphics/SVG/1.1/DTD/svg11.dtd">
<svg version="1.1" xmlns="http://www.w3.org/2000/svg" xmlns:xlink="http://www.w3.org/1999/xlink" x="0px" y="0px" width="341px"
	 height="341px" viewBox="0 0 341 341" enable-background="new 0 0 341 341" xml:space="preserve">
<g id="transparent_logo">
	<g>
		<polygon fill="#FBFCFC" points="149,-282.99 149,-218.343 187.979,-205.452 188.229,-205.647 149.279,-283.186 		"/>
		<polygon fill="#FBFCFC" points="200.004,-349.983 168.559,-265.136 196.488,-209 197,-209 197,-209.749 244.107,-335.53 		"/>
		<polygon fill="#FBFCFC" points="96,-183.187 140,-168.538 140,-299.397 96,-314.241 		"/>
		<path fill="#FBFCFC" d="M171-429.5C76.835-429.5,0.5-353.165,0.5-259C0.5-164.836,76.835-88.5,171-88.5
			c94.164,0,170.5-76.336,170.5-170.5C341.5-353.165,265.164-429.5,171-429.5z M255-196.272l-1.521,2.344
			c-1.172,0.781-2.488,1.172-3.788,1.172l-43.983-14.453c-1.303,4.688-3.145,9.18-5.488,13.477
			c-1.044,0.781-2.289,1.107-3.721,0.977l-47.187-15.82L149-208.382v46.289l-1.061,3.125c-1.172,1.041-2.551,1.495-4.241,1.367
			l-55.791-19.336L87-179.085v-142.578l1.717-2.539c1.172-0.909,2.616-1.236,4.179-0.977l55.312,19.336l14.667,28.907l31.455-82.422
			c1.3-0.909,2.804-1.236,4.497-0.977l54.259,17.578l1.914,3.125V-196.272z"/>
		<polygon fill="#FBFCFC" points="209.232,-215.608 246,-203.694 246,-312.288 245.585,-312.483 		"/>
	</g>
</g>
<g id="icon">
	<g>
		<path fill="#FBFCFC" d="M299.695,291.159c-0.568-1.375-1.139-2.747-1.704-4.122c-1.135-2.756-2.237-5.533-3.173-8.363
			c-0.694-2.087-0.074-3.281,2.455-3.582c3.37-0.398,6.679-1.307,10.441-2.084c-3.266-10.42-6.454-20.473-9.561-30.552
			c-1.142-3.708-2.382-7.422-3.042-11.225c-0.807-4.652,0.816-5.917,5.11-4.189c3.827,1.544,7.511,3.438,12.265,5.645
			c-6.246-14.364-12.104-27.85-17.937-41.267c-10.813,4.504-23.759,6.345-34.464,0.358c-11.967-6.692-18.041-19.581-18.753-33.02
			c-0.42-7.949,0.672-15.708,1.001-23.622c0.362-8.717-2.397-13.582-11.172-15.99c-5.768-1.584-17.375-4.69-22.142,0.667
			c-4.545,5.112-6.537,12.217-7.894,18.793c-2.191,10.632-0.147,24.643-6.786,33.784c-8.229,11.327-23.124,2.88-33.375,0.706
			c-8.52-1.808-9.48,8.21-11.08,14.661c-2.037,8.23-3.79,17.029-2.869,25.565c0.795,7.399,3.75,14.084,6.657,20.8
			c0.592,0.822,1.2,1.645,1.848,2.465c5.527,6.976,9.407,14.529,9.935,23.956c0.565,10.122-2.394,17.992-9.876,24.692
			c-10.464,9.363-29.655,13.688-40.588,8.02c-14.048-7.289-23.405-17.934-25.204-33.304c-2.618-6.378-3.511-13.411-3.707-20.584
			c-0.169-6.08-0.654-12.329-0.362-18.399c0.341-7.178,1.476-14.659-8.293-14.165c-15.831,0.798-27.728,16.135-28.814,31.234
			c-0.988,13.734,1.164,27.458-0.736,41.15c0,0.004,0,0.007-0.003,0.011C79.148,316.95,126.38,341,179.231,341
			C226.265,341,268.847,321.956,299.695,291.159z M256.625,212.93c0-8.108,12.571-8.108,12.571,0
			C269.196,221.036,256.625,221.036,256.625,212.93z"/>
		<path fill="#FBFCFC" d="M43.343,225.405c5.102-12.248,16.546-25.016,30.604-26.226c6.062-0.521,12.249-0.441,16.92,3.901
			c3.901,3.626,3.026,11.261,2.803,15.917c-0.559,11.761-1.611,27.444,3.72,38.916c5.027,4.065,11.021,5.61,18.234,5.328
			c11.868-0.464,22.368-3.137,31.105-11.518c1.529-1.467,2.929-2.976,3.996-4.631c-3.627-13.186-12.123-24.524-11.653-39.105
			c0.381-11.841,2.093-29.366,9.727-39.175c9.996-12.847,26.861,8.24,37.84,0.212c5.264-3.849,4.39-13.059,4.853-18.774
			c0.488-6.011,1.428-12.111,3.072-17.918c3.422-12.086,9.187-23.364,23.348-23.068c10.377,0.216,27.064,2.696,30.98,14.241
			c2.164,6.376,1.145,12.931,0.663,19.496c-0.679,9.221-1.259,18.838,2.216,27.633c6.599,16.695,23.921,20.394,39.408,13.76
			c0.132-0.058,0.261-0.082,0.394-0.125c-1.05-2.721-2.143-5.477-2.91-8.32c-0.291-1.074-0.212-2.532,0.199-3.671
			c-0.018-0.049-0.039-0.095-0.058-0.145c0.033,0.013,0.062,0.021,0.095,0.031c0.153-0.396,0.347-0.749,0.583-1.028
			c0.58-0.682,3.115-0.267,4.447,0.356c5.507,2.568,10.887,5.404,17.409,8.694c-0.82-2.176-1.182-3.183-1.578-4.177
			c-6.132-15.404-12.276-30.806-18.394-46.217c-0.55-1.388-1.212-2.814-1.335-4.263c-0.163-1.975,0.145-3.987,0.252-5.984
			c1.998,0.155,4.195-0.167,5.944,0.576c2.71,1.15,5.163,2.951,7.63,4.622c2.397,1.624,4.672,3.43,7.627,4.569
			c-2.952-7.613-6.156-15.142-8.771-22.868c-1.955-5.772-3.523-11.738-4.582-17.737c-0.924-5.243,1.651-7.156,6.062-4.414
			c7.394,4.598,14.349,9.898,21.487,14.903c-0.04,0.059-0.076,0.118-0.116,0.177c1.805,0.508,3.628,0.852,5.469,1.09
			c0.534-1.576,0.888-3.217,1.16-4.865c0.019-0.104,0.056-0.187,0.077-0.283C304.483,38.861,246.407,0,179.231,0
			C85.065,0,8.731,76.336,8.731,170.501c0,37.165,11.915,71.531,32.101,99.545C41.204,255.189,37.585,239.231,43.343,225.405z"/>
	</g>
</g>
</svg>
